<?xml version="1.0" encoding="UTF-8"?>
<svg id="Layer_1" xmlns="http://www.w3.org/2000/svg" version="1.1" viewBox="0 0 377 276">
  <!-- Generator: Adobe Illustrator 30.2.1, SVG Export Plug-In . SVG Version: 2.1.1 Build 1)  -->
  <defs>
    <style>
      .st0 {
        fill: none;
      }

      .st1 {
        fill: #fff433;
      }

      .st2 {
        fill: #9e4be1;
      }

      .st3 {
        fill: #fff;
      }

      .st4 {
        fill: red;
      }

      .st5 {
        fill: #0092ff;
      }
    </style>
  </defs>
  <rect class="st2" x="52" y="122.9" width="270.4" height="139.6" transform="translate(20.7 -18.1) rotate(5.9)"/>
  <g>
    <path class="st0" d="M330.9,97.5l-74.4,10.2c9,5.4,19.3,9.3,30.1,9.3,17,0,32.8-9.7,44.3-19.5Z"/>
    <path class="st1" d="M347.2,81c-8.2-9.9-32.7-36-60.7-36s-52.4,26.1-60.7,36c5.1,6,16.2,18.2,30.5,26.7l74.4-10.2c7.4-6.3,13.1-12.6,16.3-16.5Z"/>
    <path class="st1" d="M212.8,84.7l-2.7-3.7,2.7-3.7c1.3-1.8,33.1-44.9,73.8-44.9s32.6,7.6,44.9,16.5l16.7-15.8-4.5-33.1L27.7,43.3l4.8,35.2,2,1.2c1.8-1.8,3.9-3.7,6-5.5l-7.8-22.4,11.9-4.2,6.4,18.4c12-8.4,26.9-15.3,43.2-15.3,40.7,0,72.5,43,73.8,44.9l-10.2,7.4c-.3-.4-29.4-39.7-63.6-39.7s-49.6,23.2-59.1,34.1l5.5,39.9,197.4-27c-14.9-11.7-24.4-24.5-25.1-25.5Z"/>
    <path class="st1" d="M356.5,94l-.5-3.8c-1.1,1.3-2.4,2.8-3.9,4.4l4.5-.6Z"/>
    <path class="st1" d="M348.7,63.9l3.5-1.5-1.9-13.9-8.9,8.4c2.7,2.4,5.2,4.8,7.4,7Z"/>
    <path class="st3" d="M10,64.4l-6.7,10.7,22.3,13.9c-3.1,3.6-5,6.1-5.3,6.6l10.2,7.4c0,0,1.7-2.3,4.6-5.6l-2.6-19-22.4-14Z"/>
    <path d="M94.1,63.3c34.2,0,63.3,39.3,63.6,39.7l10.2-7.4c-1.3-1.8-33.1-44.9-73.8-44.9s-31.1,6.9-43.2,15.3l-6.4-18.4-11.9,4.2,7.8,22.4c-2.2,1.9-4.2,3.7-6,5.5l-2-1.2,2.6,19c9.5-10.9,32.8-34.1,59.1-34.1Z"/>
    <path d="M286.6,117c-10.8,0-21.1-3.9-30.1-9.3l-18.5,2.5c12.9,10.1,29.8,19.3,48.7,19.3,28.9,0,53.3-21.7,65.5-35l-21.2,2.9c-11.6,9.8-27.3,19.5-44.3,19.5Z"/>
    <path class="st3" d="M357.6,73.8l19.4-8.4-5-11.5-19.8,8.6,3.8,27.8c2.6-3,4.1-5.1,4.4-5.5l2.7-3.7-2.7-3.7c-.2-.3-1.2-1.6-2.8-3.5Z"/>
    <polygon class="st3" points="359.4 39.9 350.7 30.8 348.2 33.1 350.3 48.5 359.4 39.9"/>
    <path d="M348.7,63.9c-2.2-2.2-4.6-4.6-7.4-7l8.9-8.4-2.1-15.3-16.7,15.8c-12.3-8.9-27.8-16.5-44.9-16.5-40.7,0-72.5,43-73.8,44.9l-2.7,3.7,2.7,3.7c.7,1,10.2,13.8,25.1,25.5l18.5-2.5c-14.3-8.5-25.5-20.7-30.5-26.7,8.2-9.9,32.7-36,60.7-36s52.4,26.1,60.7,36c-3.2,3.9-8.9,10.2-16.3,16.5l21.2-2.9c1.5-1.6,2.8-3.1,3.9-4.4l-3.8-27.8-3.5,1.5Z"/>
  </g>
  <path class="st3" d="M286.6,45c-28,0-52.4,26.1-60.7,36,8.2,9.9,32.7,36,60.7,36s52.4-26.1,60.7-36c-8.2-9.9-32.7-36-60.7-36Z"/>
  <path class="st5" d="M0,106.4"/>
  <path class="st4" d="M161.9,167.2c0,7,2.8,13.3,7.4,17.9,3.9,3.9,9.1,6.6,14.9,7.2-5.8.7-11,3.3-14.9,7.2-4.6,4.6-7.4,10.9-7.4,17.9,0,14,11.4,25.4,25.4,25.4s13.3-2.8,17.9-7.4l43.1-43.1-43.1-43.1c-4.6-4.6-10.9-7.4-17.9-7.4-14,0-25.4,11.4-25.4,25.4Z"/>
  <path d="M187.2,249.2c-17.5,0-31.6-14.2-31.6-31.6s3.3-16.4,9.3-22.4c1-1,2.1-1.9,3.2-2.8-1.1-.9-2.2-1.8-3.2-2.8-6-6-9.3-13.9-9.3-22.4,0-17.5,14.2-31.6,31.6-31.6s16.4,3.3,22.4,9.3l-8.9,8.9c-3.6-3.6-8.4-5.6-13.5-5.6-10.5,0-19.1,8.6-19.1,19.1s2,9.9,5.6,13.5c3,3,7,5,11.2,5.4v12.5c-4.2.5-8.2,2.4-11.2,5.4-3.6,3.6-5.6,8.4-5.6,13.5,0,10.5,8.6,19.1,19.1,19.1s9.9-2,13.5-5.6l8.9,8.9c-6,6-13.9,9.3-22.4,9.3Z"/>
  <path d="M254.1,69c-1.7,3.6-2.7,7.7-2.7,12,0,15.5,12.6,28.1,28.1,28.1s28.1-12.6,28.1-28.1-1-8.4-2.7-12h-50.8Z"/>
  <path class="st2" d="M237.2,69h98.6c-11.8-11.1-29.7-24-49.3-24s-37.6,12.9-49.3,24Z"/>
</svg>