<?xml version="1.0" encoding="UTF-8"?>
<svg id="Layer_1" xmlns="http://www.w3.org/2000/svg" version="1.1" viewBox="0 0 2344.3 337.5">
  <!-- Generator: Adobe Illustrator 30.2.1, SVG Export Plug-In . SVG Version: 2.1.1 Build 1)  -->
  <defs>
    <style>
      .st0 {
        fill: #fff;
      }
    </style>
  </defs>
  <g>
    <path class="st0" d="M234.4,169.3c-16.7,0-30.2,13.5-30.2,30.2s3.4,15.9,8.9,21.4,10.9,7.8,17.8,8.6c-6.9.8-13.1,4-17.8,8.6-5.5,5.5-8.9,13-8.9,21.4,0,16.7,13.5,30.2,30.2,30.2s15.9-3.4,21.4-8.9l51.4-51.4-51.4-51.4c-5.5-5.5-13-8.9-21.4-8.9Z"/>
    <path class="st0" d="M411.6,82.4h-36.9c2.1,4.3,3.2,9.2,3.2,14.3s0,1.2,0,1.8c0,.2,0,.4,0,.6,0,.4,0,.8,0,1.2,0,.2,0,.4,0,.7,0,.4,0,.7-.1,1.1,0,.2,0,.5-.1.7,0,.3-.1.7-.2,1,0,.2-.1.4-.2.7,0,.3-.2.7-.3,1,0,.2-.1.4-.2.6,0,.3-.2.7-.3,1,0,.2-.1.4-.2.6-.1.3-.2.7-.4,1,0,.2-.1.4-.2.6-.1.4-.3.7-.5,1.1,0,.2-.1.3-.2.5-.2.4-.4.7-.5,1.1,0,.1-.1.3-.2.4-.2.4-.4.8-.6,1.2,0,.1-.1.2-.2.3-.3.4-.5.9-.8,1.3,0,0,0,0,0,.1-1.6,2.4-3.5,4.6-5.6,6.5-5.9,5.3-13.7,8.5-22.3,8.5s-10.3-1.2-14.8-3.4h0c-.7-.3-1.3-.7-1.9-1,0,0-.1,0-.2-.1-1.3-.7-2.5-1.6-3.6-2.5,0,0-.1-.1-.2-.2-1.1-.9-2.2-1.9-3.2-2.9,0,0-.1-.1-.2-.2-.5-.5-.9-1-1.3-1.4,0,0-.1-.1-.2-.2-.5-.6-.9-1.1-1.3-1.7,0,0,0,0,0-.1-.4-.5-.8-1.1-1.1-1.6,0-.1-.1-.2-.2-.3-.7-1.2-1.4-2.4-2-3.7,0-.1-.1-.3-.2-.4-.3-.6-.5-1.1-.7-1.7,0,0,0-.2-.1-.3-.2-.7-.5-1.3-.7-2,0-.2,0-.3-.1-.5-.2-.6-.3-1.1-.4-1.7,0-.2,0-.3-.1-.5-.1-.7-.3-1.4-.4-2.1,0-.1,0-.2,0-.4,0-.6-.1-1.2-.2-1.8,0-.2,0-.4,0-.6,0-.7,0-1.5,0-2.2,0-5.1,1.2-10,3.2-14.3h-20.1c-5.9,5.6-10.6,10.8-13.5,14.3,1.2,1.5,2.8,3.2,4.6,5.2.9,1,1.9,2,2.9,3.1.5.5,1.1,1.1,1.6,1.6,1.1,1.1,2.3,2.3,3.5,3.4,1.2,1.2,2.5,2.4,3.8,3.5,3.3,3,7,6,11,8.9,1.6,1.2,3.2,2.3,4.9,3.4,3.3,2.2,6.9,4.3,10.5,6.1.9.5,1.8.9,2.8,1.3,3.7,1.7,7.6,3.1,11.5,4.2,4.9,1.3,10,2.1,15.2,2.1s4.2-.1,6.2-.4c2-.2,4.1-.6,6.1-1,6-1.3,11.8-3.5,17.3-6.2,4.6-2.3,8.9-4.9,13-7.7,1.6-1.1,3.2-2.3,4.8-3.5,4.6-3.5,8.8-7.2,12.5-10.7.6-.6,1.2-1.2,1.8-1.7,2.3-2.3,4.4-4.5,6.2-6.4,1.8-2,3.3-3.7,4.6-5.2-2.9-3.5-7.6-8.7-13.5-14.3Z"/>
    <path class="st0" d="M475.1,83.8l-4.4-10.1-6-13.8-4.4-10.1-10.1,4.4-2.7,1.2,7.6-7.2-7.6-8-10.3-10.9-7.6-8-3.9,3.7-3.4-25.1L72.7,47.9l-1.7-4.9-10.4,3.6-14.2,5-10.4,3.6,3.6,10.4,4,11.3-14.7-9.2-9.3-5.8-5.8,9.3-8,12.7-5.8,9.3,9.3,5.8,16.1,10.1-5.4,7.4,8.9,6.5,12.1,8.8,8.9,6.5,6.5-8.9s.5-.6,1.3-1.7l4.9,35.6,9.1-1.2-14.5,140.8,335.6,34.5,18.5-180.5-17-1.8h0c1.1-.5,2.1-1.1,3.2-1.7.1,0,.3-.1.4-.2,1.1-.6,2.1-1.2,3.2-1.8,0,0,0,0,0,0,2-1.2,4.1-2.5,6.1-3.8.2-.2.5-.3.7-.5.7-.5,1.4-1,2.1-1.5.6-.4,1.3-.9,1.9-1.3.6-.4,1.2-.9,1.8-1.3.8-.6,1.6-1.2,2.4-1.8.5-.4.9-.7,1.4-1.1,1.3-1,2.6-2,3.8-3.1,16.7-13.9,27.1-28,28.3-29.5l3.2-4.4,4.7-6.5-3-4.1,10.4-4.5,10.1-4.4ZM47.5,123l-12.1-8.8c.4-.5,2.6-3.5,6.3-7.8l-26.6-16.6,8-12.7,29.1,18.2c2.2-2.1,4.6-4.4,7.2-6.6l-9.3-26.7,14.2-5,7.7,21.9c14.4-10,32.1-18.2,51.5-18.2,48.5,0,86.4,51.3,88,53.5l-12.1,8.8c-.3-.5-35-47.3-75.8-47.3s-75.5,46.8-75.8,47.3ZM394.9,170.4l-15.5,150.7-305.8-31.4,13.3-129.5,89.1-12.2,165.2,17c2.1.3,4.2.5,6.2.6,0,0,0,0,0,0l47.4,4.9ZM239,139.3l41-5.6c1.3,1.2,2.7,2.4,4.1,3.6,1.2,1,2.3,1.9,3.5,2.8.5.4.9.7,1.4,1.1.6.4,1.1.9,1.7,1.3,1.1.9,2.3,1.7,3.5,2.5l-55.2-5.7ZM437.5,88.1c1.9,2.3,3,3.9,3.3,4.2l3.2,4.4-3.2,4.4c0,0-.1.1-.2.2,0,0,0,0,0,0,0,.1-.2.3-.3.4,0,0,0,0,0,0-.1.2-.3.4-.5.6,0,0,0,0,0,0-.6.8-1.4,1.8-2.5,3.1,0,0,0,0,0,0-.4.4-.7.9-1.1,1.3,0,0,0,0,0,0-10.1,12-35,38.1-66.4,45.5-.7.2-1.3.3-2,.5,0,0,0,0,0,0-.7.1-1.3.3-2,.4,0,0,0,0-.1,0-.6.1-1.3.2-1.9.3,0,0-.2,0-.3,0-.6,0-1.2.2-1.8.2-.2,0-.3,0-.5,0-.5,0-1.1.1-1.6.2-.3,0-.5,0-.8,0-.5,0-.9,0-1.4.1-.4,0-.7,0-1.1,0-.3,0-.7,0-1,0-.7,0-1.5,0-2.2,0s-1.5,0-2.2,0c-.3,0-.5,0-.8,0-.5,0-.9,0-1.4,0-.3,0-.6,0-.9,0-.4,0-.8,0-1.2-.1-.3,0-.7,0-1-.1-.4,0-.8,0-1.1-.1-.3,0-.7,0-1-.1-.4,0-.7,0-1.1-.2-.4,0-.7-.1-1.1-.2-.3,0-.7-.1-1-.2-.4,0-.8-.1-1.1-.2-.3,0-.6-.1-.9-.2-.4,0-.8-.2-1.2-.3-.3,0-.6-.1-.8-.2-.4,0-.8-.2-1.2-.3-.2,0-.5-.1-.7-.2-.4-.1-.9-.2-1.3-.4-.2,0-.4-.1-.5-.2-.5-.1-1-.3-1.5-.4,0,0-.1,0-.2,0-3.2-1-6.2-2.1-9.2-3.4-1-.4-2-.9-3-1.4,0,0,0,0,0,0-2-.9-3.9-1.9-5.8-3,0,0,0,0,0,0-1.9-1-3.7-2.1-5.5-3.2,0,0,0,0,0,0-1.8-1.1-3.6-2.3-5.3-3.5,0,0,0,0,0,0-9.5-6.6-17.5-14-23.6-20.3,0,0,0,0,0,0-1.1-1.1-2.1-2.2-3.1-3.3,0,0,0,0,0,0-1-1.1-1.9-2.1-2.7-3,0,0,0,0,0,0-.8-.9-1.6-1.8-2.3-2.7,0,0,0,0,0,0-.3-.4-.7-.8-1-1.2,0,0,0,0,0,0-.3-.4-.6-.7-.9-1,0,0,0,0,0,0-.3-.3-.5-.6-.7-.9,0,0,0,0,0,0-.2-.3-.4-.5-.6-.8,0,0,0,0,0,0-.2-.2-.4-.5-.5-.7,0,0,0,0,0,0-.1-.2-.3-.4-.4-.5,0,0,0,0,0,0-.1-.1-.2-.3-.3-.4,0,0,0,0,0,0,0,0-.1-.2-.1-.2l-3.2-4.4,3.2-4.4c1.6-2.2,39.5-53.5,88-53.5s38.8,9,53.5,19.7l22.9-21.7,10.3,10.9-21.4,20.2c3.2,2.9,6.2,5.7,8.8,8.3l27.7-12.1,6,13.8-23.1,10.1Z"/>
  </g>
  <g>
    <path class="st0" d="M755.2,133.3c10.6,12,15.9,28.3,15.9,48.8v91.4h-54.8v-84.1c0-8.9-2.3-16-7-21.1-4.7-5.1-10.9-7.7-18.7-7.7s-14.6,2.6-19.3,7.7c-4.7,5.1-7,12.2-7,21.1v84.1h-54.8V116.6h54.8v22.4c4.8-7.1,11.4-12.8,19.6-17.2,8.2-4.4,17.6-6.6,28.2-6.6,18.1,0,32.4,6,43,18Z"/>
    <path class="st0" d="M950.3,206h-103.7c.6,8.6,2.9,14.9,7.1,19.1,4.2,4.2,9.5,6.3,16.1,6.3s15.6-4.1,19.6-12.3h58.4c-2.4,10.8-7.1,20.4-14.1,28.9-7,8.5-15.8,15.1-26.4,20-10.6,4.8-22.4,7.3-35.2,7.3s-29.2-3.3-41.2-9.8c-12-6.5-21.4-15.8-28.2-27.9-6.8-12.1-10.2-26.4-10.2-42.8s3.4-30.6,10.1-42.6c6.7-12,16.1-21.3,28.1-27.8,12-6.5,25.8-9.8,41.5-9.8s29.2,3.2,41.1,9.5c11.9,6.3,21.2,15.4,27.9,27.2,6.7,11.8,10.1,25.8,10.1,41.8s-.3,8.6-.8,12.9ZM895.2,179.5c0-6.7-2.2-12-6.7-15.8-4.5-3.8-10.1-5.7-16.8-5.7s-12.2,1.8-16.5,5.4c-4.3,3.6-7.1,9-8.4,16.1h48.3Z"/>
    <path class="st0" d="M1119,133.3c10.6,12,15.9,28.3,15.9,48.8v91.4h-54.8v-84.1c0-8.9-2.3-16-7-21.1-4.7-5.1-10.9-7.7-18.7-7.7s-14.6,2.6-19.3,7.7c-4.7,5.1-7,12.2-7,21.1v84.1h-54.8V116.6h54.8v22.4c4.8-7.1,11.4-12.8,19.6-17.2,8.2-4.4,17.6-6.6,28.2-6.6,18.1,0,32.4,6,43,18Z"/>
    <path class="st0" d="M1325.5,116.6v156.8h-55v-22.4c-4.7,7.1-11.1,12.8-19.3,17.2-8.2,4.4-17.6,6.6-28.2,6.6-18.3,0-32.6-6-43.2-18-10.5-12-15.8-28.4-15.8-49v-91.1h54.5v84.1c0,8.9,2.4,16,7.1,21.1,4.8,5.1,11,7.7,18.9,7.7s14.3-2.6,19-7.7c4.7-5.1,7-12.2,7-21.1v-84.1h55Z"/>
    <path class="st0" d="M1454.9,273.4l-43.3-64.3v64.3h-54.8V66.6h54.8v111.5l43.3-61.5h65.7l-61.8,78.8,62.9,78h-66.8Z"/>
    <path class="st0" d="M1537.5,152.4c5.9-12.1,13.9-21.4,24-27.9,10.2-6.5,21.5-9.8,34-9.8s20.1,2.1,27.9,6.4c7.8,4.3,13.9,10.1,18.2,17.3v-21.8h54.8v156.8h-54.8v-21.8c-4.3,7.3-10.4,13-18.3,17.3-7.9,4.3-17.2,6.4-27.8,6.4s-23.8-3.3-34-9.8c-10.2-6.5-18.2-15.9-24-28.1-5.9-12.2-8.8-26.4-8.8-42.6s2.9-30.4,8.8-42.5ZM1633.3,171.1c-5.5-5.8-12.3-8.7-20.3-8.7s-15,2.8-20.4,8.5c-5.4,5.7-8.1,13.6-8.1,23.9s2.7,18,8.1,23.9c5.4,5.9,12.2,8.8,20.4,8.8s14.8-2.9,20.3-8.7c5.5-5.8,8.2-13.8,8.2-24s-2.8-18-8.2-23.8Z"/>
    <path class="st0" d="M1794.4,137.3h-35.5v136.1h-19.6v-136.1h-21.2v-16.5h21.2v-10.6c0-16.6,4.2-28.8,12.7-36.6,8.5-7.8,22.2-11.7,41.2-11.7v16.8c-12.7,0-21.6,2.4-26.7,7.3-5.1,4.8-7.7,13-7.7,24.3v10.6h35.5v16.5Z"/>
    <path class="st0" d="M1824.8,87.8c-2.8-2.8-4.2-6.2-4.2-10.3s1.4-7.5,4.2-10.2c2.8-2.7,6.1-4.1,10.1-4.1s7.3,1.4,10.1,4.1c2.8,2.7,4.2,6.1,4.2,10.2s-1.4,7.5-4.2,10.3c-2.8,2.8-6.1,4.2-10.1,4.2s-7.3-1.4-10.1-4.2ZM1844.7,120.8v152.6h-19.6V120.8h19.6Z"/>
    <path class="st0" d="M1908.7,66.6v206.8h-19.6V66.6h19.6Z"/>
    <path class="st0" d="M2178.4,134.9c11.3,11.3,16.9,27.6,16.9,49v89.4h-19.3v-87.2c0-16.6-4-29.2-12-38-8-8.8-18.9-13.1-32.7-13.1s-25.8,4.8-34.4,14.3c-8.6,9.5-12.9,23.3-12.9,41.4v82.7h-19.3v-87.2c0-16.6-4-29.2-12-38-8-8.8-19-13.1-33-13.1s-25.8,4.8-34.4,14.3c-8.6,9.5-12.9,23.3-12.9,41.4v82.7h-19.6V120.8h19.6v26.3c4.8-9.5,11.7-16.7,20.7-21.7,8.9-4.9,18.9-7.4,29.9-7.4s24.8,3.2,34.8,9.5c10,6.3,17.2,15.6,21.7,27.9,4.1-12.1,11.1-21.4,21.1-27.8,10-6.4,21.3-9.6,33.9-9.6s32.5,5.6,43.7,16.9Z"/>
    <path class="st0" d="M2248.3,263.5c-11.1-8.1-17.3-19.1-18.6-33.1h20.1c.9,8.6,5,15.5,12.2,20.8,7.2,5.3,16.8,8,28.9,8s19-2.5,25-7.5c6.1-5,9.1-11.3,9.1-18.7s-1.7-9.5-5-12.9c-3.4-3.4-7.6-6-12.7-8-5.1-2-12.1-4.1-20.8-6.3-11.4-3-20.6-6-27.7-8.9-7.1-3-13.1-7.4-18-13.3-4.9-5.9-7.4-13.7-7.4-23.6s2.2-14.3,6.7-20.7c4.5-6.3,10.8-11.4,19-15.1,8.2-3.7,17.5-5.6,27.9-5.6,16.4,0,29.6,4.1,39.7,12.4,10.1,8.3,15.5,19.7,16.2,34.2h-19.6c-.6-8.9-4.1-16.2-10.5-21.7-6.4-5.5-15.2-8.2-26.4-8.2s-17.9,2.3-24,7c-6.1,4.7-9.2,10.4-9.2,17.3s1.8,10.9,5.4,14.7c3.6,3.8,8.1,6.8,13.6,8.9,5.4,2.1,12.7,4.5,21.8,7.1,11,3,19.7,5.9,26.3,8.7,6.5,2.8,12.1,6.9,16.8,12.3,4.7,5.4,7.1,12.6,7.3,21.5,0,8.2-2.2,15.5-6.7,21.9s-10.7,11.5-18.7,15.2c-8,3.7-17.2,5.6-27.7,5.6-17.5,0-31.8-4.1-42.9-12.2Z"/>
  </g>
</svg>